<svg xmlns="http://www.w3.org/2000/svg" width="34.833" height="22.154" viewBox="0 0 34.833 22.154">
  <g id="Group_35" data-name="Group 35" transform="translate(-1114.6 -8.5)">
    <path id="Path_14" data-name="Path 14" d="M1.582,0H21.066a1.582,1.582,0,0,1,1.582,1.582V16.616A1.582,1.582,0,0,1,21.066,18.2H1.582A1.582,1.582,0,0,1,0,16.616V1.582A1.582,1.582,0,0,1,1.582,0Z" transform="translate(1126.785 12.456)" fill="#0094d9"/>
    <path id="Path_15" data-name="Path 15" d="M-2948.667-2107.35a5.547,5.547,0,0,0,.969,2.869,3.769,3.769,0,0,0,2.492.949s2.918-2.255,4.312-3.283a6.858,6.858,0,0,0,1.859-1.859Z" transform="translate(4073.783 2134.186)" fill="#0888e2"/>
    <path id="Path_16" data-name="Path 16" d="M2.392,0H14.753a2.26,2.26,0,0,1,2.392,2.1l3,14.687a2.26,2.26,0,0,1-2.392,2.1H2.392A2.26,2.26,0,0,1,0,16.785V2.1A2.26,2.26,0,0,1,2.392,0Z" transform="translate(1114.6 8.5)" fill="#dae1f1"/>
    <text id="अ" transform="translate(1135 26)" fill="#fff" font-size="12" font-family="NirmalaUI-Bold, Nirmala UI" font-weight="700"><tspan x="0" y="0">अ</tspan></text>
    <text id="A" transform="translate(1119 22)" fill="#535353" font-size="12" font-family="Arial-BoldMT, Arial" font-weight="700"><tspan x="0" y="0">A</tspan></text>
  </g>
</svg>
