<svg xmlns="http://www.w3.org/2000/svg" width="25.2" height="16.028" viewBox="0 0 25.2 16.028">
  <g id="Group_32" data-name="Group 32" transform="translate(-272.3 -61.846)">
    <path id="Path_14" data-name="Path 14" d="M1.145,0h14.1a1.187,1.187,0,0,1,1.145,1.225V12.862a1.187,1.187,0,0,1-1.145,1.225H1.145A1.187,1.187,0,0,1,0,12.862V1.225A1.187,1.187,0,0,1,1.145,0Z" transform="translate(281.113 63.786)" fill="#666"/>
    <path id="Path_15" data-name="Path 15" d="M-2948.667-2107.718a9.62,9.62,0,0,0,1.238,2.475c.626.691,2.251-.111,2.251-.111s1.686-.986,2.7-1.73a1.49,1.49,0,0,0,.721-1.608Z" transform="translate(3228.574 2182.829)" fill="#444"/>
    <g id="Path_16" data-name="Path 16" transform="translate(272.3 61.846)" fill="#efefef">
      <path d="M 12.84761428833008 13.62078094482422 L 1.730974197387695 13.62078094482422 C 1.05221426486969 13.62078094482422 0.5000042319297791 13.1412410736084 0.5000042319297791 12.55181121826172 L 0.5000042319297791 1.568980932235718 C 0.5000042319297791 0.9795409440994263 1.05221426486969 0.5000009536743164 1.730974197387695 0.5000009536743164 L 10.67432403564453 0.5000009536743164 C 11.35308456420898 0.5000009536743164 11.90529441833496 0.9795409440994263 11.90529441833496 1.568980932235718 L 11.90529441833496 1.61798095703125 L 11.91480445861816 1.666040897369385 L 14.07756233215332 12.59564781188965 C 14.05100250244141 13.16483974456787 13.50947189331055 13.62078094482422 12.84761428833008 13.62078094482422 Z" stroke="none"/>
      <path d="M 1.730974197387695 1.000000953674316 C 1.334744453430176 1.000000953674316 1.000003814697266 1.260560989379883 1.000003814697266 1.568970680236816 L 1.000003814697266 12.55181121826172 C 1.000003814697266 12.86022090911865 1.334744453430176 13.12078094482422 1.730974197387695 13.12078094482422 L 12.84761428833008 13.12078094482422 C 13.21375942230225 13.12078094482422 13.52739524841309 12.89829540252686 13.57291221618652 12.62115001678467 L 11.40529441833496 1.666960716247559 L 11.40529441833496 1.568970680236816 C 11.40529441833496 1.260560989379883 11.07055473327637 1.000000953674316 10.67432403564453 1.000000953674316 L 1.730974197387695 1.000000953674316 M 1.730974197387695 9.5367431640625e-07 L 10.67432403564453 9.5367431640625e-07 C 11.63031387329102 9.5367431640625e-07 12.40529441833496 0.7024507522583008 12.40529441833496 1.568970680236816 L 14.57858467102051 12.55181121826172 C 14.57858467102051 13.41833114624023 13.80360412597656 14.12078094482422 12.84761428833008 14.12078094482422 L 1.730974197387695 14.12078094482422 C 0.7749843597412109 14.12078094482422 3.814697265625e-06 13.41833114624023 3.814697265625e-06 12.55181121826172 L 3.814697265625e-06 1.568970680236816 C 3.814697265625e-06 0.7024507522583008 0.7749843597412109 9.5367431640625e-07 1.730974197387695 9.5367431640625e-07 Z" stroke="none" fill="#a5a5a5"/>
    </g>
    <text id="अ" transform="translate(287.057 74.1)" fill="#fff" font-size="8" font-family="NirmalaUI-Bold, Nirmala UI" font-weight="700"><tspan x="0" y="0">अ</tspan></text>
    <text id="A" transform="translate(275.483 71.655)" fill="#535353" font-size="8" font-family="Arial-BoldMT, Arial" font-weight="700"><tspan x="0" y="0">A</tspan></text>
  </g>
</svg>
