<svg xmlns="http://www.w3.org/2000/svg" width="32.451" height="24.306" viewBox="0 0 32.451 24.306">
  <g id="Group_58" data-name="Group 58" transform="translate(-743.741 -159.699)">
    <g id="Group_57" data-name="Group 57" transform="translate(743.741 159.699)">
      <path id="Path_78" data-name="Path 78" d="M760.331,223.642a21.745,21.745,0,0,0-15.9,6.721,2,2,0,0,0-.08,2.941q1.486,1.642,3.047,3.216a1.933,1.933,0,0,0,2.78.059c1.2-.956,2.429-1.872,3.666-2.778a2.175,2.175,0,0,0,.929-1.577c.127-1.066.246-2.134.415-3.193a.761.761,0,0,1,.445-.485,13.533,13.533,0,0,1,8.688,0,.82.82,0,0,1,.444.551c.17,1.059.276,2.129.418,3.193a2.227,2.227,0,0,0,.97,1.558c1.2.879,2.4,1.766,3.56,2.706a1.943,1.943,0,0,0,2.913-.109q1.433-1.476,2.831-2.985a2.075,2.075,0,0,0-.057-3.222,21.525,21.525,0,0,0-12.172-6.331C762.145,223.737,761.043,223.705,760.331,223.642Zm-.145,1.35c.41.031,1.02.069,1.628.125a19.973,19.973,0,0,1,12.644,6.1c.482.485.491.8.024,1.3-.919.989-1.86,1.959-2.782,2.946-.379.406-.71.383-1.142.038-1.165-.93-2.373-1.809-3.543-2.733a1.252,1.252,0,0,1-.458-.684q-.3-1.806-.5-3.629a1.109,1.109,0,0,0-.855-1.081,16.106,16.106,0,0,0-10.483.009,1.073,1.073,0,0,0-.833,1.029c-.137,1.213-.3,2.425-.5,3.63a1.239,1.239,0,0,1-.44.692c-1.188.937-2.416,1.822-3.6,2.768a.712.712,0,0,1-1.136-.06c-.907-.972-1.832-1.927-2.738-2.9-.495-.532-.486-.837.023-1.35A20.316,20.316,0,0,1,760.186,224.992Z" transform="translate(-743.741 -212.856)"/>
      <path id="Path_79" data-name="Path 79" d="M804.172,162.2q0,1.509,0,3.019c0,.19,0,.38.011.569a.593.593,0,0,0,.636.635.573.573,0,0,0,.656-.608q.018-2.721,0-5.442a.626.626,0,0,0-.693-.661q-2.659-.014-5.318,0a.637.637,0,0,0-.7.664c-.007.471.335.672.752.684.865.024,1.73.01,2.6.011h.785l-6.3,6.3c-.047-.045-.212-.2-.371-.354l-6.716-6.712c-.119-.119-.237-.241-.363-.353-.328-.289-.684-.369-1-.018a.651.651,0,0,0,.051.961c.072.077.146.152.22.227q3.783,3.782,7.567,7.563c.627.626.862.621,1.511-.027q3.023-3.019,6.039-6.046a3.576,3.576,0,0,0,.389-.581Z" transform="translate(-780.5 -159.699)"/>
    </g>
  </g>
</svg>
