<svg xmlns="http://www.w3.org/2000/svg" width="25.2" height="16.028" viewBox="0 0 25.2 16.028">
  <g id="Group_33" data-name="Group 33" transform="translate(-272.3 -61.846)">
    <g id="Path_14" data-name="Path 14" transform="translate(281.113 63.786)" fill="#efefef">
      <path d="M 15.24175643920898 13.58697509765625 L 1.144916534423828 13.58697509765625 C 0.7893064618110657 13.58697509765625 0.4999964833259583 13.26175498962402 0.4999964833259583 12.86201477050781 L 0.4999964833259583 1.224955201148987 C 0.4999964833259583 0.8252151608467102 0.7893064618110657 0.5000051856040955 1.144916534423828 0.5000051856040955 L 15.24175643920898 0.5000051856040955 C 15.59736633300781 0.5000051856040955 15.88667678833008 0.8252151608467102 15.88667678833008 1.224955201148987 L 15.88667678833008 12.86201477050781 C 15.88667678833008 13.26175498962402 15.59736633300781 13.58697509765625 15.24175643920898 13.58697509765625 Z" stroke="none"/>
      <path d="M 1.144916534423828 0.999995231628418 C 1.085826873779297 0.999995231628418 0.9999961853027344 1.087635040283203 0.9999961853027344 1.224955558776855 L 0.9999961853027344 12.86201477050781 C 0.9999961853027344 12.99933528900146 1.085826873779297 13.08696556091309 1.144916534423828 13.08696556091309 L 15.24175643920898 13.08696556091309 C 15.30084609985352 13.08696556091309 15.38667678833008 12.99933528900146 15.38667678833008 12.86201477050781 L 15.38667678833008 1.224955558776855 C 15.38667678833008 1.087635040283203 15.30084609985352 0.999995231628418 15.24175643920898 0.999995231628418 L 1.144916534423828 0.999995231628418 M 1.144916534423828 -4.76837158203125e-06 L 15.24175643920898 -4.76837158203125e-06 C 15.87407684326172 -4.76837158203125e-06 16.38667678833008 0.5484247207641602 16.38667678833008 1.224955558776855 L 16.38667678833008 12.86201477050781 C 16.38667678833008 13.53853511810303 15.87407684326172 14.08696556091309 15.24175643920898 14.08696556091309 L 1.144916534423828 14.08696556091309 C 0.5125961303710938 14.08696556091309 -3.814697265625e-06 13.53853511810303 -3.814697265625e-06 12.86201477050781 L -3.814697265625e-06 1.224955558776855 C -3.814697265625e-06 0.5484247207641602 0.5125961303710938 -4.76837158203125e-06 1.144916534423828 -4.76837158203125e-06 Z" stroke="none" fill="#a5a5a5"/>
    </g>
    <path id="Path_15" data-name="Path 15" d="M-2948.667-2107.718a9.62,9.62,0,0,0,1.238,2.475c.626.691,2.251-.111,2.251-.111s1.686-.986,2.7-1.73a1.49,1.49,0,0,0,.721-1.608Z" transform="translate(3228.574 2182.829)" fill="#444"/>
    <path id="Path_16" data-name="Path 16" d="M1.731,0h8.943a1.656,1.656,0,0,1,1.731,1.569l2.173,10.983a1.656,1.656,0,0,1-1.731,1.569H1.731A1.656,1.656,0,0,1,0,12.552V1.569A1.656,1.656,0,0,1,1.731,0Z" transform="translate(272.3 61.846)" fill="#666"/>
    <text id="अ" transform="translate(287.057 74.1)" fill="#535353" font-size="8" font-family="NirmalaUI-Bold, Nirmala UI" font-weight="700"><tspan x="0" y="0">अ</tspan></text>
    <text id="A" transform="translate(275.483 71.655)" fill="#fff" font-size="8" font-family="Arial-BoldMT, Arial" font-weight="700"><tspan x="0" y="0">A</tspan></text>
  </g>
</svg>
