<svg xmlns="http://www.w3.org/2000/svg" width="31.078" height="27.453" viewBox="0 0 31.078 27.453">
  <g id="Group_71" data-name="Group 71" transform="translate(-418.128 -398.026)">
    <g id="Group_68" data-name="Group 68" transform="translate(418.128 398.026)">
      <g id="Group_67" data-name="Group 67" transform="translate(0 0)">
        <path id="Path_89" data-name="Path 89" d="M449.2,401.652a3.458,3.458,0,0,0-3.607-3.624q-5.977-.007-11.954,0-5.917,0-11.833,0a3.464,3.464,0,0,0-3.682,3.67q0,10.05,0,20.1a3.456,3.456,0,0,0,3.668,3.68q11.863,0,23.726,0a3.456,3.456,0,0,0,3.682-3.665Q449.207,411.733,449.2,401.652Zm-1.032,20.182a2.4,2.4,0,0,1-2.673,2.6q-11.834.014-23.669,0a2.746,2.746,0,0,1-1.559-.387,2.647,2.647,0,0,1-1.122-2.464c.006-4.9.011-9.8-.01-14.7,0-.509.13-.63.63-.628,4.633.02,9.265.012,13.9.012h13.959c.3,0,.569-.066.567.438C448.172,411.753,448.195,416.794,448.172,421.834Zm-.609-16.611c-4.632-.02-9.265-.012-13.9-.012-4.653,0-9.3-.007-13.957.011-.458,0-.585-.114-.568-.57.037-.97.011-1.943.012-2.915a2.61,2.61,0,0,1,.783-2.025,2.843,2.843,0,0,1,2.079-.641q11.652.009,23.3,0c.222,0,.445.01.666.028a2.3,2.3,0,0,1,2.144,2.089c.123,1.13,0,2.266.064,3.4C448.22,405.1,448.066,405.225,447.564,405.223Z" transform="translate(-418.128 -398.026)" fill="#050606"/>
        <path id="Path_90" data-name="Path 90" d="M494.67,413.756a1.606,1.606,0,0,0-1.612,1.605,1.655,1.655,0,0,0,1.65,1.647,1.681,1.681,0,0,0,1.6-1.654A1.656,1.656,0,0,0,494.67,413.756Zm.049,2.189a.535.535,0,0,1-.618-.573.526.526,0,0,1,.562-.575.552.552,0,0,1,.591.545A.54.54,0,0,1,494.719,415.945Z" transform="translate(-480.92 -411.208)" fill="#060707"/>
        <path id="Path_91" data-name="Path 91" d="M463.885,413.713a1.577,1.577,0,0,0-1.58,1.619,1.615,1.615,0,0,0,1.607,1.612,1.635,1.635,0,0,0,1.628-1.665A1.618,1.618,0,0,0,463.885,413.713Zm-.013,2.186a.544.544,0,0,1-.537-.607c.011-.347.254-.527.6-.569.307.079.562.23.553.6A.538.538,0,0,1,463.872,415.9Z" transform="translate(-455.148 -411.172)" fill="#060706"/>
        <path id="Path_92" data-name="Path 92" d="M433.157,413.635a1.607,1.607,0,0,0-.022,3.213,1.607,1.607,0,1,0,.022-3.213Zm-.035,2.19a.554.554,0,0,1-.563-.593c0-.344.242-.535.588-.595.319.065.576.227.581.582A.554.554,0,0,1,433.122,415.825Z" transform="translate(-429.367 -411.106)" fill="#050606"/>
      </g>
    </g>
    <g id="Group_70" data-name="Group 70" transform="translate(428.008 407.857)">
      <g id="Group_69" data-name="Group 69" transform="translate(0 0)">
        <path id="Path_93" data-name="Path 93" d="M479.114,470.915c.757-.2,1.483-.352,2.188-.578a2.53,2.53,0,0,1,1.81.07,6.037,6.037,0,1,0,3.047-11.618,6.059,6.059,0,0,0-6.281,8.839.574.574,0,0,1,.029.378C479.655,468.961,479.39,469.911,479.114,470.915Zm1.456-1.433c.157-.581.289-1.1.444-1.619a.5.5,0,0,0-.068-.448,4.939,4.939,0,0,1-.7-3.453,5.023,5.023,0,0,1,5.773-4.15,5.022,5.022,0,0,1,2.838,8.411,4.979,4.979,0,0,1-6.145.9.618.618,0,0,0-.522-.07C481.674,469.2,481.151,469.329,480.57,469.482Z" transform="translate(-479.114 -458.711)"/>
        <path id="Path_94" data-name="Path 94" d="M498.82,478.839a.631.631,0,0,0-.589.267,1.694,1.694,0,0,0-.335,1.8,5.9,5.9,0,0,0,1.549,2.171,5.363,5.363,0,0,0,2.646,1.424,1.662,1.662,0,0,0,1.371-.3,1.088,1.088,0,0,0,.453-.99.322.322,0,0,0-.144-.233c-.382-.2-.775-.377-1.163-.566a.284.284,0,0,0-.41.12,1.934,1.934,0,0,1-.155.2c-.455.545-.326.516-.986.2a4,4,0,0,1-1.641-1.547.263.263,0,0,1,.03-.382.871.871,0,0,0,.167-1.25,3.755,3.755,0,0,1-.233-.56C499.244,478.859,499.216,478.842,498.82,478.839Z" transform="translate(-494.751 -475.572)"/>
      </g>
    </g>
  </g>
</svg>
