<svg xmlns="http://www.w3.org/2000/svg" width="32.3" height="43.993" viewBox="0 0 32.3 43.993">
  <g id="Group_66" data-name="Group 66" transform="translate(-436.231 -399.47)">
    <g id="Group_63" data-name="Group 63" transform="translate(436.231 399.47)">
      <g id="Group_62" data-name="Group 62" transform="translate(0 0)">
        <path id="Path_81" data-name="Path 81" d="M495.71,421.444q0-8.976,0-17.953a3.691,3.691,0,0,0-4.041-4.019q-7.749,0-15.5,0a3.673,3.673,0,0,0-3.945,3.931c0,2.229.005,4.458-.005,6.687,0,.566.058,1.108.768,1.09.643-.016.712-.525.709-1.06q-.016-3.343,0-6.686a2.242,2.242,0,0,1,2.48-2.495q7.794-.008,15.589,0a2.24,2.24,0,0,1,2.477,2.5q0,18.044,0,36.089a2.229,2.229,0,0,1-2.423,2.461q-7.841.01-15.681,0a2.231,2.231,0,0,1-2.442-2.441q-.013-2.656,0-5.312c0-.547-.1-1.028-.747-1.022s-.733.5-.73,1.038c.013,1.862-.012,3.725.01,5.587a3.616,3.616,0,0,0,3.614,3.611q8.116.028,16.231,0a3.621,3.621,0,0,0,3.632-3.779Q495.719,430.558,495.71,421.444Z" transform="translate(-463.412 -399.47)" fill="#050605"/>
        <path id="Path_82" data-name="Path 82" d="M511.177,411.454c-.7,0-1.4,0-2.1,0a.7.7,0,0,0-.794.691c-.022.513.3.77.8.771,1.4,0,2.8,0,4.2,0,.5,0,.843-.226.839-.739s-.348-.733-.849-.729C512.576,411.458,511.877,411.454,511.177,411.454Z" transform="translate(-490.65 -408.52)" fill="#060606"/>
        <path id="Path_83" data-name="Path 83" d="M506.242,544.067c-.044-.512-.273-.785-.741-.824a.728.728,0,0,0-.888.7.7.7,0,0,0,.721.77A.8.8,0,0,0,506.242,544.067Z" transform="translate(-487.876 -508.053)" fill="#101111"/>
        <path id="Path_84" data-name="Path 84" d="M518.238,543.951a.769.769,0,0,0-.891-.7.7.7,0,0,0-.734.756.724.724,0,0,0,.874.71A.751.751,0,0,0,518.238,543.951Z" transform="translate(-496.94 -508.058)" fill="#101111"/>
        <path id="Path_85" data-name="Path 85" d="M529.432,543.226c-.516.015-.818.28-.821.722a.715.715,0,0,0,.832.751.7.7,0,0,0,.772-.717A.706.706,0,0,0,529.432,543.226Z" transform="translate(-506.003 -508.044)" fill="#101111"/>
        <path id="Path_86" data-name="Path 86" d="M455.318,462.888c0-1.922.01-3.845,0-5.767a3.639,3.639,0,0,0-3.762-3.74q-5.773-.014-11.547,0a3.637,3.637,0,0,0-3.767,3.734q-.017,5.812,0,11.625a3.63,3.63,0,0,0,3.715,3.694q5.819.02,11.638,0a3.632,3.632,0,0,0,3.721-3.688C455.33,466.794,455.318,464.841,455.318,462.888Zm-1.47,5.676a2.215,2.215,0,0,1-2.385,2.405q-5.685.015-11.371,0a2.215,2.215,0,0,1-2.385-2.405q-.013-5.633,0-11.266a2.231,2.231,0,0,1,2.432-2.451c1.864-.009,3.729,0,5.594,0,1.926,0,3.852-.011,5.777,0a2.207,2.207,0,0,1,2.338,2.358Q453.863,462.886,453.848,468.564Z" transform="translate(-436.231 -440.182)" fill="#050605"/>
      </g>
    </g>
    <g id="Group_65" data-name="Group 65" transform="translate(440.79 416.852)">
      <g id="Group_64" data-name="Group 64" transform="translate(0 0)">
        <path id="Path_87" data-name="Path 87" d="M454.862,480.693c.695-.181,1.362-.336,2.016-.534a1.644,1.644,0,0,1,1.189.061,5.05,5.05,0,1,0-3.1-5.462,4.9,4.9,0,0,0,.513,3.126.494.494,0,0,1,.046.4C455.3,479.07,455.089,479.861,454.862,480.693Zm1.234-1.208c.014-.08.02-.126.032-.171.106-.4.206-.793.325-1.185a.393.393,0,0,0-.053-.355,4.131,4.131,0,0,1-.6-2.761,4.207,4.207,0,1,1,2.239,4.259.958.958,0,0,0-.813-.082C456.863,479.306,456.49,479.384,456.1,479.485Z" transform="translate(-454.862 -470.492)"/>
        <path id="Path_88" data-name="Path 88" d="M466.072,481.6a.538.538,0,0,0-.507.236,1.416,1.416,0,0,0-.27,1.487,4.947,4.947,0,0,0,1.31,1.831,4.487,4.487,0,0,0,2.2,1.178,1.391,1.391,0,0,0,1.148-.247.907.907,0,0,0,.383-.827.27.27,0,0,0-.117-.2c-.32-.167-.649-.316-.973-.474a.237.237,0,0,0-.345.095,1.839,1.839,0,0,1-.143.185c-.372.446-.272.411-.792.164a3.338,3.338,0,0,1-1.393-1.3c-.074-.119-.089-.222.02-.32a.728.728,0,0,0,.144-1.045,3.024,3.024,0,0,1-.2-.468C466.424,481.621,466.4,481.607,466.072,481.6Z" transform="translate(-462.665 -478.879)"/>
      </g>
    </g>
  </g>
</svg>
