<svg xmlns="http://www.w3.org/2000/svg" width="41.401" height="34.59" viewBox="0 0 41.401 34.59">
  <g id="Group_52" data-name="Group 52" transform="translate(-515.839 -134.552)">
    <g id="Group_51" data-name="Group 51" transform="translate(515.839 134.552)">
      <path id="Path_72" data-name="Path 72" d="M526.316,210.342a4.464,4.464,0,0,0-.03-6.34,4.326,4.326,0,0,0-5.719-.175c-1.948,1.668-2.052,3.892-.261,6.549a7.785,7.785,0,0,0-4.216,4.4c-.775,2.016.3,3.563,2.478,3.568q4.754.011,9.509,0c2.159-.005,3.2-1.551,2.447-3.584A8.028,8.028,0,0,0,526.316,210.342Zm-2.9,6.336c-1.6,0-3.209.011-4.813,0-1.005-.01-1.258-.382-.929-1.3a6.075,6.075,0,0,1,5.649-3.926,6.138,6.138,0,0,1,5.618,3.831c.364.98.108,1.382-.923,1.391C526.484,216.688,524.949,216.678,523.414,216.678Zm2.519-9.5a2.565,2.565,0,0,1-2.676,2.591,2.627,2.627,0,1,1,.06-5.255A2.588,2.588,0,0,1,525.933,207.175Z" transform="translate(-515.839 -183.766)"/>
      <path id="Path_73" data-name="Path 73" d="M526.365,142.06c1.744-2.187,1.727-4.661.019-6.3a4.311,4.311,0,0,0-5.726-.23c-1.96,1.639-2.077,3.926-.288,6.564a7.682,7.682,0,0,0-4.153,4.328,3.818,3.818,0,0,0-.264,1.72,2.238,2.238,0,0,0,2.276,1.919c3.454.022,6.908.033,10.362-.006a2.294,2.294,0,0,0,2.19-2.9,7.378,7.378,0,0,0-3.524-4.609C526.995,142.385,526.715,142.251,526.365,142.06Zm-2.959,6.336c-1.6,0-3.208.014-4.811-.006-.9-.011-1.151-.36-.9-1.161a6.035,6.035,0,0,1,11.345-.154c.317.918.056,1.308-.927,1.317C526.544,148.408,524.975,148.4,523.406,148.4Zm.008-6.909a2.656,2.656,0,0,1-2.69-2.612,2.7,2.7,0,0,1,2.676-2.652,2.624,2.624,0,0,1,2.6,2.588A2.55,2.55,0,0,1,523.414,141.488Z" transform="translate(-515.907 -134.552)"/>
      <path id="Path_74" data-name="Path 74" d="M598.1,150.306q-4.658,0-9.315,0c-.653,0-1.377-.028-1.369.859.007.806.678.82,1.306.819q9.42-.01,18.839,0c.64,0,1.286-.052,1.268-.859s-.683-.82-1.31-.819C604.383,150.31,601.243,150.306,598.1,150.306Z" transform="translate(-567.431 -145.904)"/>
      <path id="Path_75" data-name="Path 75" d="M598.157,218.6c-3.14,0-6.279,0-9.419,0-.618,0-1.307-.026-1.321.793-.015.87.691.888,1.356.888q9.367-.009,18.734,0c.624,0,1.3-.015,1.323-.813.023-.9-.707-.866-1.357-.866Q602.815,218.6,598.157,218.6Z" transform="translate(-567.43 -195.127)"/>
      <path id="Path_76" data-name="Path 76" d="M594.276,236.642c-1.883,0-3.765.009-5.648,0-.613,0-1.2.1-1.217.818-.025.815.607.867,1.25.865q5.7-.016,11.4,0c.607,0,1.206-.069,1.223-.8.018-.8-.611-.886-1.257-.883C598.111,236.649,596.194,236.642,594.276,236.642Z" transform="translate(-567.425 -208.132)"/>
      <path id="Path_77" data-name="Path 77" d="M594.371,168.36c-1.917,0-3.834.008-5.751,0-.618,0-1.184.124-1.212.834-.029.739.531.853,1.156.851q5.751-.017,11.5,0c.606,0,1.207-.068,1.216-.8.01-.793-.623-.884-1.265-.881C598.135,168.365,596.253,168.36,594.371,168.36Z" transform="translate(-567.423 -158.917)"/>
    </g>
  </g>
</svg>
