<svg xmlns="http://www.w3.org/2000/svg" width="26.331" height="48" viewBox="0 0 26.331 48">
  <g id="Group_97" data-name="Group 97" transform="translate(-677 -2640.443)">
    <g id="Group_53" data-name="Group 53" transform="translate(142.008 2526.662)">
      <g id="Group_49" data-name="Group 49" transform="translate(534.992 113.782)">
        <path id="Path_70" data-name="Path 70" d="M561.322,137.769q0-10.4,0-20.808c0-2.163-1.024-3.178-3.2-3.179q-9.972,0-19.945,0c-2.165,0-3.179,1.023-3.18,3.2q0,20.807,0,41.615c0,2.163,1.024,3.179,3.2,3.179q9.972,0,19.945,0c2.163,0,3.18-1.026,3.18-3.2Q561.324,148.173,561.322,137.769Zm-8.666-22.444c1.884,0,3.657,0,5.43,0,1.351,0,1.692.349,1.692,1.726q0,20.75,0,41.5c0,1.346-.352,1.686-1.732,1.686q-9.823,0-19.645,0c-1.566,0-1.864-.295-1.864-1.845q0-20.6,0-41.209c0-.226-.012-.452.006-.677a1.125,1.125,0,0,1,1.167-1.168c1.964-.029,3.93-.01,5.941-.01.21.777.438,1.509.6,2.255a.948.948,0,0,0,1.084.845c1.871-.018,3.742-.022,5.613,0a.99.99,0,0,0,1.134-.91C552.227,116.8,552.451,116.094,552.656,115.325Zm-2.015,1.525h-4.968l-.376-1.476h5.708Z" transform="translate(-534.992 -113.782)"/>
        <path id="Path_71" data-name="Path 71" d="M578.12,284.686a10.868,10.868,0,0,0-2.019.035.734.734,0,0,0-.234.093.759.759,0,0,0,.021,1.338.449.449,0,0,0,.161.042,35.924,35.924,0,0,0,4.24,0,.479.479,0,0,0,.175-.047.76.76,0,0,0-.065-1.376.747.747,0,0,0-.164-.049A12.817,12.817,0,0,0,578.12,284.686Z" transform="translate(-565.028 -240.552)"/>
      </g>
    </g>
    <g id="Group_77" data-name="Group 77" transform="translate(-62.924 2348.583)">
      <g id="Group_76" data-name="Group 76" transform="translate(744.924 308.315)">
        <path id="Path_101" data-name="Path 101" d="M744.927,317.242c0,1.581,0,3.162,0,4.743a1.3,1.3,0,0,0,1.084,1.4,1.243,1.243,0,0,0,1.06-.3c.623-.5,1.25-.985,1.86-1.5a1.426,1.426,0,0,1,.979-.344c2.168.011,4.337.006,6.506.005a4.3,4.3,0,0,0,2.71-.874,4.186,4.186,0,0,0,1.686-3.406q.032-2.2,0-4.4a4.244,4.244,0,0,0-4.339-4.259h-7.2a4.25,4.25,0,0,0-4.348,4.321C744.919,314.172,744.927,315.707,744.927,317.242Zm7.954-7.82h3.53a3.151,3.151,0,0,1,3.3,3.274q.008,2.095,0,4.189a3.658,3.658,0,0,1-.093.822,3.13,3.13,0,0,1-3.158,2.435c-2.2.006-4.406.009-6.609,0a2.343,2.343,0,0,0-1.583.572c-.584.488-1.182.958-1.782,1.427a1.2,1.2,0,0,1-.327.126,1.141,1.141,0,0,1-.114-.339c-.006-3.116-.019-6.232,0-9.348a3.128,3.128,0,0,1,3.207-3.153Q751.064,309.418,752.881,309.421Z" transform="translate(-744.924 -308.315)"/>
        <path id="Path_102" data-name="Path 102" d="M822.368,370.693a.915.915,0,1,0-.933-.909A.916.916,0,0,0,822.368,370.693Z" transform="translate(-814.377 -363.279)"/>
        <path id="Path_103" data-name="Path 103" d="M782.507,370.7a.914.914,0,1,0-.955-.872A.908.908,0,0,0,782.507,370.7Z" transform="translate(-778.173 -363.287)"/>
        <path id="Path_104" data-name="Path 104" d="M863.446,369.773a.913.913,0,1,0-.9.927A.9.9,0,0,0,863.446,369.773Z" transform="translate(-850.855 -363.285)"/>
      </g>
    </g>
  </g>
</svg>
