<svg id="Group_53673" data-name="Group 53673" xmlns="http://www.w3.org/2000/svg" xmlns:xlink="http://www.w3.org/1999/xlink" width="30.121" height="30.121" viewBox="0 0 30.121 30.121">
  <defs>
    <clipPath id="clip-path">
      <rect id="Rectangle_556" data-name="Rectangle 556" width="30.121" height="30.121" fill="#0295d9" stroke="#0295d9" stroke-width="1"/>
    </clipPath>
  </defs>
  <g id="Group_53672" data-name="Group 53672" clip-path="url(#clip-path)">
    <path id="Path_672" data-name="Path 672" d="M30.122,14.673A14.811,14.811,0,0,1,8.188,27.519L0,30.121,2.67,22.249A14.517,14.517,0,0,1,.548,14.673a14.787,14.787,0,0,1,29.573,0M15.336,2.337A12.4,12.4,0,0,0,2.9,14.673a12.208,12.208,0,0,0,2.368,7.233L3.719,26.486,8.5,24.969a12.445,12.445,0,0,0,19.272-10.3A12.4,12.4,0,0,0,15.336,2.337M22.8,18.053c-.092-.15-.333-.24-.694-.42s-2.146-1.05-2.478-1.17-.575-.18-.815.18-.937,1.17-1.149,1.41-.422.27-.784.09a9.914,9.914,0,0,1-2.916-1.784,10.934,10.934,0,0,1-2.017-2.491c-.21-.359-.021-.554.158-.733.164-.162.363-.42.544-.629a2.474,2.474,0,0,0,.363-.6.653.653,0,0,0-.031-.629c-.09-.18-.815-1.95-1.118-2.67s-.6-.692-.815-.692a5.215,5.215,0,0,0-.6.063,2.047,2.047,0,0,0-1.058.45,4.02,4.02,0,0,0-1.268,3A6.961,6.961,0,0,0,9.6,15.142c.182.241,2.507,3.991,6.192,5.431s3.685.959,4.35.9a3.658,3.658,0,0,0,2.446-1.709,2.989,2.989,0,0,0,.213-1.709" transform="translate(-0.001)" fill="#0295d9" stroke="#0295d9" stroke-width="1" fill-rule="evenodd"/>
  </g>
</svg>
