<svg id="Group_53668" data-name="Group 53668" xmlns="http://www.w3.org/2000/svg" xmlns:xlink="http://www.w3.org/1999/xlink" width="21.806" height="28.454" viewBox="0 0 21.806 28.454">
  <defs>
    <clipPath id="clip-path">
      <rect id="Rectangle_549" data-name="Rectangle 549" width="21.806" height="28.454" fill="#0295d9"/>
    </clipPath>
  </defs>
  <g id="Group_53667" data-name="Group 53667" clip-path="url(#clip-path)">
    <path id="Path_668" data-name="Path 668" d="M27.116,23.658,20.375,30.4a.285.285,0,0,0,.4.4l6.74-6.74a.285.285,0,0,0-.4-.4" transform="translate(-13.044 -15.154)" fill="#0295d9"/>
    <path id="Path_669" data-name="Path 669" d="M30.77,36,27.343,39.43a.19.19,0,0,0,.261.261l3.427-3.427A.19.19,0,0,0,30.77,36" transform="translate(-17.554 -23.12)" fill="#0295d9"/>
    <path id="Path_670" data-name="Path 670" d="M1.319,0A1.319,1.319,0,0,0,0,1.319V27.135a1.319,1.319,0,0,0,1.319,1.319H20.487a1.319,1.319,0,0,0,1.319-1.319V1.319A1.319,1.319,0,0,0,20.487,0Zm9.73.629a.3.3,0,1,1-.3.3.3.3,0,0,1,.3-.3M10,1.78h2.1a.274.274,0,0,1,0,.547H10a.274.274,0,0,1,0-.547m-.933.036a.238.238,0,1,1-.238.238.238.238,0,0,1,.238-.238M10.9,27.442a1.353,1.353,0,1,1,1.354-1.353A1.353,1.353,0,0,1,10.9,27.442m8.724-3.39H2.179V3.219H19.627Z" fill="#0295d9"/>
  </g>
</svg>
