<svg xmlns="http://www.w3.org/2000/svg" xmlns:xlink="http://www.w3.org/1999/xlink" width="36" height="27.502" viewBox="0 0 36 27.502">
  <defs>
    <clipPath id="clip-path">
      <rect id="Rectangle_550" data-name="Rectangle 550" width="36" height="27.502" fill="#0295d9"/>
    </clipPath>
  </defs>
  <g id="Group_53669" data-name="Group 53669" clip-path="url(#clip-path)">
    <path id="Path_671" data-name="Path 671" d="M1.888,27.5H34.11a1.887,1.887,0,0,0,.789-3.6l-2.748-2.436a2.227,2.227,0,0,0,1.995-2.213V2.238A2.237,2.237,0,0,0,31.909,0H4.089A2.237,2.237,0,0,0,1.853,2.238V19.252a2.23,2.23,0,0,0,2.086,2.222L1.108,23.9a1.892,1.892,0,0,0-.8.683L.285,24.6H.3a1.884,1.884,0,0,0,1.591,2.9m.736-1.269A.372.372,0,1,1,3,25.861a.37.37,0,0,1-.374.372m1.483,0a.372.372,0,1,1,.373-.372.372.372,0,0,1-.373.372m1.584,0a.372.372,0,1,1,.373-.372.371.371,0,0,1-.373.372m13.644,0H16.188a.372.372,0,0,1,0-.745h3.147a.372.372,0,1,1,0,.745M18,1.324a.411.411,0,1,1-.407.409A.409.409,0,0,1,18,1.324M3.886,3.338H32.111V18.152H3.886Zm.7,18.486h.72L3.239,23.55H32.76l-2-1.727h.757l2.356,2.09H2.147Z" transform="translate(0.001 0)" fill="#0295d9"/>
  </g>
</svg>
