<svg xmlns="http://www.w3.org/2000/svg" width="37.449" height="37.486" viewBox="0 0 37.449 37.486">
  <g id="Group_34" data-name="Group 34" transform="translate(-462.786 -161.039)">
    <path id="Path_61" data-name="Path 61" d="M479.626,194.169c.028-.518-.321-.632-.761-.664a15.532,15.532,0,0,1-6.407-1.762,15.372,15.372,0,0,1-8.193-11.418l-.051-1.148h2.235a.713.713,0,1,0,0-1.426h-2.3l-.048-1.079a15.631,15.631,0,0,1,13.749-14.311c.1-.013.194-.021.291-.028l.555,0v2.383a.713.713,0,1,0,1.426,0v-2.393l.822-.006a15.667,15.667,0,0,1,14.14,13.278,1.873,1.873,0,0,1,.025.218c.017.315.031.629.053,1.1-.824-.826-1.527-1.53-2.229-2.235-.3-.3-.641-.509-1-.131-.344.358-.193.706.12,1.019q1.631,1.629,3.255,3.266a.693.693,0,0,0,1.129.006q1.651-1.661,3.307-3.316a.631.631,0,0,0,.083-.964c-.322-.349-.657-.235-.949.062-.763.775-1.52,1.557-2.39,2.449a16.087,16.087,0,0,0-2.439-7.938c-3.816-5.851-9.217-8.663-16.213-7.994a16.732,16.732,0,0,0-14.876,14.3,16.927,16.927,0,0,0,13.791,19.088c.668.119,1.354.141,2.033.2C479.2,194.761,479.6,194.7,479.626,194.169Z" transform="translate(0)" fill="#050605"/>
    <path id="Path_62" data-name="Path 62" d="M555.235,284.651c-.706-.029-1.413-.014-2.12-.015H547.94c2.273-2.685,4.436-5.226,6.582-7.78a4.235,4.235,0,0,0,.456-5.025,4.784,4.784,0,0,0-4.772-2.144,5.012,5.012,0,0,0-4.189,4.114,1.46,1.46,0,0,0-.045.288c0,.471-.171,1.066.555,1.134.688.064.651-.518.709-.964a3.708,3.708,0,0,1,5.179-3.04A3.01,3.01,0,0,1,553.588,276c-2.346,2.806-4.718,5.589-7.08,8.381-.11.13-.231.252-.335.387a.654.654,0,0,0,.541,1.136q4.241-.011,8.482,0c.392,0,.668-.147.71-.566C555.952,284.854,555.638,284.667,555.235,284.651Z" transform="translate(-66.924 -87.378)" fill="#2e3180"/>
    <path id="Path_63" data-name="Path 63" d="M602.556,282.235a2.878,2.878,0,0,0-.365-.007c-1.405-.016-1.405-.016-1.405-1.457q0-4.983,0-9.967c0-.42.046-.874-.468-1.032-.486-.149-.693.254-.912.567q-4.147,5.924-8.287,11.853c-.215.308-.438.616-.225,1,.2.357.564.319.909.318,1.17,0,2.341,0,3.511,0s2.342.039,3.51-.016c.606-.029.751.188.691.731a5.663,5.663,0,0,0,0,1.025c.028.395.181.745.641.74s.619-.32.629-.739c.014-.557-.176-1.284.1-1.623.295-.359,1.048-.092,1.6-.113.414-.016.74-.153.771-.6C603.291,282.448,602.95,282.29,602.556,282.235Zm-3.485,0c-2.093-.015-4.185-.008-6.357-.008.629-1.158,6.365-9.278,6.794-9.622,0,3.072,0,6.12.006,9.167C599.516,282.112,599.432,282.238,599.071,282.235Z" transform="translate(-103.026 -87.479)" fill="#2e3180"/>
    <path id="Path_64" data-name="Path 64" d="M536.4,204.831a5.046,5.046,0,0,0,.406-.421.576.576,0,0,0-.032-.85.586.586,0,0,0-.852-.005c-.345.308-.663.645-.991.972q-2.637,2.64-5.272,5.281a1.19,1.19,0,0,1-.459.264,2.032,2.032,0,0,0-1.587-.008,1.24,1.24,0,0,1-.472-.272q-1.243-1.24-2.482-2.484c-.307-.307-.646-.6-1.059-.211-.452.425-.148.784.179,1.113.809.812,1.608,1.635,2.435,2.428a1.324,1.324,0,0,1,.335.46,2.033,2.033,0,1,0,3.693-.008,1.127,1.127,0,0,1,.266-.357Q533.457,207.786,536.4,204.831Zm-8.6,7.118a.6.6,0,0,1,1.2-.013c-.016.389-.2.6-.592.6A.548.548,0,0,1,527.8,211.948Z" transform="translate(-48.755 -34.069)" fill="#050605"/>
  </g>
</svg>
