<svg xmlns="http://www.w3.org/2000/svg" width="37.047" height="41.108" viewBox="0 0 37.047 41.108">
  <g id="Group_36" data-name="Group 36" transform="translate(-295.953 -517.825) rotate(43)">
    <g id="Group_35" data-name="Group 35" transform="translate(580.253 166.942)">
      <path id="Path_65" data-name="Path 65" d="M613.576,197.328c-2,.32-4.011.613-6.008.968a3.254,3.254,0,0,0-2.7,3.145,2.189,2.189,0,0,0,2.185,2.354c4.865.023,9.731.043,14.6-.02a7.237,7.237,0,0,0,4.992-2.061,34.024,34.024,0,0,0,3.557-3.7,8.007,8.007,0,0,0-.4-10.126c-1.854-2.106-3.767-4.16-5.658-6.233a2.9,2.9,0,0,0-4.915,1.052,3.085,3.085,0,0,0-2.618-.375,2.948,2.948,0,0,0-1.865,1.872,3.124,3.124,0,0,0-2.586-.394,3.037,3.037,0,0,0-1.915,1.895c-.855-.857-1.67-1.686-2.5-2.5a2.863,2.863,0,0,0-4.339,3.736c.15.181.321.345.487.512q4.637,4.634,9.279,9.264a4.031,4.031,0,0,0,.568.4Zm.987,4.951v.008c-2.4,0-4.8,0-7.2,0-.892,0-1.2-.435-.924-1.28a1.847,1.847,0,0,1,1.542-1.284c.609-.115,1.226-.185,1.839-.283,1.837-.292,3.676-.571,5.509-.887.8-.138.977-.739.43-1.346-.115-.127-.24-.244-.362-.365q-5.207-5.2-10.413-10.4a4.018,4.018,0,0,1-.509-.575,1.288,1.288,0,0,1,.022-1.557,1.217,1.217,0,0,1,1.411-.513,2.448,2.448,0,0,1,.934.64q3.4,3.369,6.782,6.763c.151.151.305.3.47.437a.677.677,0,0,0,.983-.02.7.7,0,0,0,.036-1.035,4.376,4.376,0,0,0-.354-.372c-.848-.848-1.7-1.693-2.546-2.545a1.382,1.382,0,1,1,1.943-1.917q1.37,1.357,2.727,2.727c.364.367.787.522,1.186.146s.267-.811-.1-1.177-.759-.757-1.136-1.137c-.823-.829-.917-1.6-.272-2.234.629-.615,1.385-.521,2.189.273.381.376.762.753,1.137,1.136.336.344.732.523,1.132.185.421-.357.282-.754.007-1.194a1.664,1.664,0,0,1-.322-1.159,1.934,1.934,0,0,1,.908-1.037,1.2,1.2,0,0,1,1.442.4c1.855,2.048,3.762,4.051,5.568,6.141a6.589,6.589,0,0,1,.186,8.605,36.1,36.1,0,0,1-3.065,3.112,6.159,6.159,0,0,1-4.3,1.748C619.151,202.293,616.857,202.279,614.563,202.279Z" transform="translate(-598.871 -178.328)"/>
      <path id="Path_66" data-name="Path 66" d="M587.015,168.479a5.2,5.2,0,0,1,4.534,2.736c.064.111.117.228.186.336a.72.72,0,0,0,1.029.345.687.687,0,0,0,.269-1.048,11.055,11.055,0,0,0-1.908-2.376,6.284,6.284,0,0,0-6.985-.839,6.362,6.362,0,0,0-3.88,5.822,6.51,6.51,0,0,0,3.53,6.177c.074.043.154.074.23.114.46.237.889.242,1.146-.269.243-.483-.049-.771-.431-1.058a9.666,9.666,0,0,1-1.937-1.633,4.83,4.83,0,0,1-.482-5.429A5.086,5.086,0,0,1,587.015,168.479Z" transform="translate(-580.253 -166.942)"/>
    </g>
  </g>
</svg>
