<svg xmlns="http://www.w3.org/2000/svg" width="30.127" height="36.131" viewBox="0 0 30.127 36.131">
  <g id="Group_39" data-name="Group 39" transform="translate(-470.604 -115.225)">
    <g id="Group_38" data-name="Group 38" transform="translate(470.604 115.225)">
      <path id="Path_67" data-name="Path 67" d="M470.616,130.741c0,1.764.035,3.528-.007,5.291a12.615,12.615,0,0,0,4.356,9.885,24.231,24.231,0,0,0,9.611,5.282,3.7,3.7,0,0,0,2.036.029c4.359-1.315,8.31-3.346,11.278-6.934a11.708,11.708,0,0,0,2.83-7.577c.018-4.173.013-8.346.007-12.52a3.8,3.8,0,0,0-2.389-3.7c-3.65-1.646-7.314-3.261-10.97-4.895a4.042,4.042,0,0,0-3.446.021c-3.612,1.612-7.228,3.212-10.836,4.832a3.875,3.875,0,0,0-2.47,3.8Q470.619,127.5,470.616,130.741Zm1.615-.242h-.066c0-2.012.005-4.023,0-6.035a2.593,2.593,0,0,1,1.687-2.617q5.3-2.321,10.561-4.715a2.908,2.908,0,0,1,2.564.017q5.234,2.37,10.494,4.683a2.6,2.6,0,0,1,1.712,2.6c0,3.974.015,7.948-.008,11.921a10.71,10.71,0,0,1-2.645,7.092c-2.755,3.224-6.384,5.017-10.328,6.269a2.071,2.071,0,0,1-1.169-.035,22.922,22.922,0,0,1-9.026-4.967,10.7,10.7,0,0,1-3.755-7.44C472.149,135.021,472.231,132.758,472.231,130.5Z" transform="translate(-470.604 -115.225)"/>
      <path id="Path_68" data-name="Path 68" d="M511.612,162.665a8.661,8.661,0,1,0,8.664,8.482A8.614,8.614,0,0,0,511.612,162.665Zm7.07,8.64a7.034,7.034,0,1,1-7.021-7.076A7.042,7.042,0,0,1,518.682,171.306Z" transform="translate(-496.58 -153.24)"/>
      <path id="Path_69" data-name="Path 69" d="M528.33,195.193c-.539-.565-1.031-1.084-1.526-1.6-.376-.392-.814-.531-1.23-.118s-.27.857.108,1.238q.994,1,1.994,2a.846.846,0,0,0,1.354.008q2.122-2.134,4.251-4.26c.385-.385.533-.812.117-1.231s-.846-.289-1.231.1C530.917,192.591,529.663,193.851,528.33,195.193Z" transform="translate(-514.453 -175.924)"/>
    </g>
  </g>
</svg>
